<?xml version="1.0" standalone="no"?>
<!DOCTYPE svg PUBLIC "-//W3C//DTD SVG 20010904//EN"
 "http://www.w3.org/TR/2001/REC-SVG-20010904/DTD/svg10.dtd">
<svg version="1.0" xmlns="http://www.w3.org/2000/svg"
 width="700.000000pt" height="700.000000pt" viewBox="0 0 700.000000 700.000000"
 preserveAspectRatio="xMidYMid meet">
<metadata>
Created by potrace 1.11, written by Peter Selinger 2001-2013
</metadata>
<g transform="translate(0.000000,700.000000) scale(0.100000,-0.100000)"
fill="#000000" stroke="none">
<path d="M5487 6713 c-4 -3 -7 -11 -7 -17 0 -6 5 -5 12 2 6 6 9 14 7 17 -3 3
-9 2 -12 -2z"/>
<path d="M5520 6460 c0 -5 7 -10 16 -10 8 0 12 5 9 10 -3 6 -10 10 -16 10 -5
0 -9 -4 -9 -10z"/>
<path d="M5500 6440 c-11 -7 -11 -11 -1 -24 18 -22 41 -20 41 3 0 22 -21 33
-40 21z"/>
<path d="M5517 6295 c-4 -8 -3 -16 1 -19 4 -3 9 4 9 15 2 23 -3 25 -10 4z"/>
<path d="M4561 6061 c-11 -7 -8 -17 14 -54 14 -26 24 -51 20 -57 -3 -5 -2 -10
3 -10 16 0 23 46 12 75 -5 14 -9 31 -7 37 3 15 -24 21 -42 9z"/>
<path d="M3278 5959 c-10 -5 -18 -18 -18 -28 0 -10 -8 -21 -18 -23 -23 -6 -26
-44 -4 -53 20 -7 41 18 49 58 3 15 10 30 14 33 11 6 12 24 2 24 -5 0 -16 -5
-25 -11z"/>
<path d="M2960 5930 c0 -5 1 -11 2 -12 2 -2 -5 -14 -15 -28 -21 -30 -22 -40
-2 -40 8 0 15 5 15 10 0 6 6 10 13 10 19 0 67 24 67 33 0 4 -16 15 -35 23 -41
17 -45 17 -45 4z"/>
<path d="M4873 5883 c-15 -5 -17 -49 -3 -58 5 -3 12 5 16 19 7 31 3 44 -13 39z"/>
<path d="M3032 5853 c-20 -4 -22 -8 -16 -36 6 -28 5 -30 -9 -18 -23 18 -48 -7
-41 -40 5 -19 4 -21 -5 -9 -9 13 -11 13 -11 -2 0 -10 -5 -18 -11 -18 -8 0 -8
-5 1 -15 10 -12 10 -18 0 -30 -7 -8 -19 -15 -26 -15 -20 0 -17 -19 4 -28 24
-10 25 -41 1 -35 -29 8 -23 -11 12 -40 35 -29 91 -46 97 -29 2 6 10 8 19 5 13
-5 13 -3 -1 24 -8 17 -12 33 -9 37 4 3 1 6 -5 6 -7 0 -12 5 -12 11 0 6 10 8
23 5 12 -3 16 -3 10 0 -7 3 -13 11 -13 18 0 17 37 17 44 0 9 -24 26 -15 42 22
15 36 15 36 36 18 21 -19 21 -19 14 19 -4 21 -15 48 -24 59 -42 52 -85 98 -91
97 -3 -1 -16 -4 -29 -6z m18 -150 c0 -32 -5 -28 -14 10 -4 19 -3 26 4 22 5 -3
10 -18 10 -32z"/>
<path d="M4877 5779 c4 -13 8 -18 11 -10 2 7 -1 18 -6 23 -8 8 -9 4 -5 -13z"/>
<path d="M5270 5770 c-8 -5 -10 -10 -5 -10 6 0 17 5 25 10 8 5 11 10 5 10 -5
0 -17 -5 -25 -10z"/>
<path d="M5004 5755 c-16 -12 -16 -14 -3 -15 9 0 22 7 29 15 16 19 0 19 -26 0z"/>
<path d="M5250 5740 c-12 -8 -11 -10 7 -10 12 0 25 5 28 10 8 13 -15 13 -35 0z"/>
<path d="M2679 5601 c13 -12 33 -21 44 -21 21 0 21 0 2 14 -11 7 -31 16 -45
20 l-25 7 24 -20z"/>
<path d="M4247 5388 c-49 -49 -66 -74 -81 -120 -3 -11 7 -31 30 -55 29 -31 37
-35 46 -23 8 13 9 12 5 -1 -4 -13 6 -21 37 -33 49 -19 68 -20 120 -5 45 12 91
59 107 107 9 26 15 33 31 29 16 -4 17 -3 7 9 -6 7 -15 11 -20 8 -5 -3 -8 -2
-7 3 2 4 -12 30 -31 56 -38 56 -79 77 -145 77 -41 0 -50 -5 -99 -52z m53 -58
c0 -19 -11 -26 -23 -14 -8 8 3 34 14 34 5 0 9 -9 9 -20z m80 5 c0 -8 -4 -15
-9 -15 -5 0 -11 7 -15 15 -3 9 0 15 9 15 8 0 15 -7 15 -15z m104 -60 c5 -23 4
-27 -5 -15 -9 12 -10 11 -6 -7 3 -13 1 -23 -4 -23 -5 0 -10 12 -10 28 -1 15
-3 37 -4 50 -2 19 0 21 10 10 7 -7 15 -26 19 -43z m-58 -80 c-23 -17 -82 -20
-91 -4 -5 7 4 8 28 4 20 -4 43 -2 54 4 26 15 31 13 9 -4z"/>
<path d="M3615 5420 c3 -5 8 -10 11 -10 2 0 4 5 4 10 0 6 -5 10 -11 10 -5 0
-7 -4 -4 -10z"/>
<path d="M3582 5411 c4 -13 18 -16 19 -4 0 4 -5 9 -11 12 -7 2 -11 -2 -8 -8z"/>
<path d="M4875 5327 c1 -24 5 -49 9 -55 5 -8 2 -11 -5 -10 -18 4 -21 -108 -3
-123 7 -6 11 -16 8 -23 -6 -16 40 -66 61 -66 21 0 19 13 -5 30 -14 10 -16 17
-9 26 6 7 8 17 6 22 -3 4 -2 14 3 21 8 14 -11 100 -30 134 -7 11 -7 17 0 17
11 0 -13 55 -29 64 -4 3 -8 -14 -6 -37z"/>
<path d="M3465 5324 c-57 -20 -88 -59 -82 -101 3 -18 3 -33 -1 -33 -4 0 -13
-9 -20 -20 -16 -26 -7 -43 17 -31 14 8 21 3 36 -25 21 -39 75 -84 102 -84 10
1 29 7 42 14 13 7 32 11 42 9 11 -3 32 10 58 36 34 34 45 40 61 31 10 -5 26
-10 34 -10 18 0 22 25 6 35 -6 3 -7 -1 -4 -9 9 -24 -20 -20 -42 5 -19 21 -19
22 4 15 13 -5 22 -3 22 3 0 6 -4 11 -9 11 -5 0 -12 10 -15 23 -3 12 -33 50
-67 85 -56 57 -65 62 -103 61 -22 0 -59 -7 -81 -15z m63 -86 c-6 -18 -28 -21
-28 -4 0 9 7 16 16 16 9 0 14 -5 12 -12z"/>
<path d="M3045 5240 c3 -5 16 -10 28 -10 18 0 19 2 7 10 -20 13 -43 13 -35 0z"/>
<path d="M3019 5218 c-7 -22 -3 -48 8 -48 7 0 13 7 13 15 0 10 11 15 33 16 27
0 29 2 12 9 -19 8 -64 13 -66 8z"/>
<path d="M2970 5180 c0 -5 7 -10 16 -10 8 0 12 5 9 10 -3 6 -10 10 -16 10 -5
0 -9 -4 -9 -10z"/>
<path d="M3050 5170 c0 -11 -7 -20 -15 -20 -14 0 -14 -3 0 -24 14 -21 18 -37
24 -87 1 -3 10 -15 21 -27 12 -12 16 -23 10 -27 -17 -11 18 -37 35 -27 15 8
15 10 1 21 -18 15 -22 36 -5 25 8 -5 8 -1 0 14 -6 11 -11 30 -11 41 0 12 -5
21 -11 21 -7 0 -10 15 -7 40 3 30 0 40 -11 40 -11 0 -10 4 5 15 18 14 18 14
-8 15 -21 0 -28 -5 -28 -20z"/>
<path d="M3136 4925 c4 -8 8 -15 10 -15 2 0 4 7 4 15 0 8 -4 15 -10 15 -5 0
-7 -7 -4 -15z"/>
<path d="M3988 4755 c-3 -3 -28 -8 -54 -11 -27 -3 -62 -6 -77 -8 -16 -2 -50
-22 -78 -47 -61 -53 -71 -94 -44 -184 16 -58 46 -96 107 -140 27 -19 27 -21
15 -62 -7 -23 -26 -53 -42 -67 -29 -25 -29 -26 -10 -41 55 -41 189 -69 230
-46 5 2 19 6 31 7 23 2 70 24 153 69 l44 24 -42 7 c-23 4 -48 12 -54 18 -11
10 -44 16 -94 16 -13 0 -23 5 -23 10 0 6 7 10 15 10 10 0 15 11 16 30 2 43 2
42 33 75 46 48 64 101 63 177 -2 74 -9 85 -92 141 -36 25 -84 35 -97 22z m144
-267 c-7 -7 -12 -8 -12 -2 0 6 3 14 7 17 3 4 9 5 12 2 2 -3 -1 -11 -7 -17z
m-32 -13 c0 -8 -7 -15 -15 -15 -26 0 -18 20 13 29 1 1 2 -6 2 -14z m-213 -175
c-3 -11 -1 -18 4 -14 5 3 9 1 9 -4 0 -5 -9 -12 -20 -15 -22 -6 -25 5 -10 34
14 25 24 24 17 -1z m108 10 c3 -5 -1 -10 -9 -10 -9 0 -16 5 -16 10 0 6 4 10 9
10 6 0 13 -4 16 -10z m45 -4 c0 -11 -19 -15 -25 -6 -3 5 1 10 9 10 9 0 16 -2
16 -4z m-80 -10 c0 -2 -11 -6 -25 -8 -13 -3 -22 -1 -19 3 5 9 44 13 44 5z"/>
<path d="M4518 4493 c7 -3 16 -2 19 1 4 3 -2 6 -13 5 -11 0 -14 -3 -6 -6z"/>
<path d="M4473 4464 c-12 -12 -7 -24 9 -24 5 0 6 4 3 10 -4 6 1 7 11 3 12 -4
15 -3 10 5 -4 7 -2 12 3 12 17 0 13 -20 -5 -27 -13 -5 -13 -7 -2 -14 20 -13
28 -11 28 9 0 15 2 15 11 2 9 -12 10 -12 5 3 -3 10 -6 22 -6 26 0 12 -55 8
-67 -5z"/>
<path d="M4455 4419 c-4 -6 -5 -11 -3 -12 2 -1 18 -15 37 -32 31 -28 33 -28
28 -8 -2 12 0 24 7 26 6 2 -3 11 -21 20 -38 20 -40 20 -48 6z"/>
<path d="M4445 4378 c-3 -8 -5 -20 -3 -26 2 -6 -6 -18 -17 -26 -17 -14 -18
-17 -5 -26 23 -15 43 -12 36 5 -3 9 -1 15 7 14 44 -5 48 10 12 48 -20 22 -25
24 -30 11z"/>
<path d="M3569 4357 c5 -14 8 -28 5 -31 -2 -3 1 -2 7 3 14 11 8 43 -9 49 -9 3
-10 -2 -3 -21z"/>
<path d="M4090 4342 c0 -17 5 -29 13 -29 9 0 12 10 9 29 -2 15 -8 28 -13 28
-5 0 -9 -13 -9 -28z"/>
<path d="M3833 4315 c0 -8 4 -12 9 -9 4 3 8 9 8 15 0 5 -4 9 -8 9 -5 0 -9 -7
-9 -15z"/>
<path d="M3590 4300 c0 -11 5 -20 10 -20 6 0 10 -7 10 -16 0 -8 4 -13 9 -9 5
3 11 -3 13 -12 2 -11 6 -14 10 -7 4 6 -2 20 -12 32 -11 12 -20 28 -20 37 0 8
-4 15 -10 15 -5 0 -10 -9 -10 -20z"/>
<path d="M3117 4093 c-3 -5 8 -9 24 -10 17 -1 27 2 24 7 -7 12 -42 13 -48 3z"/>
<path d="M3143 4040 c-8 -12 -9 -21 -3 -25 13 -8 32 4 25 16 -4 5 6 9 22 9 22
0 25 2 13 10 -23 15 -44 12 -57 -10z"/>
<path d="M3175 3990 c3 -5 10 -10 16 -10 5 0 9 5 9 10 0 6 -7 10 -16 10 -8 0
-12 -4 -9 -10z"/>
<path d="M3181 3956 c15 -8 39 -11 55 -8 l29 6 -25 7 c-14 4 -38 7 -55 8 l-30
1 26 -14z"/>
<path d="M3230 3920 c0 -5 5 -10 10 -10 6 0 10 5 10 10 0 6 -4 10 -10 10 -5 0
-10 -4 -10 -10z"/>
<path d="M3228 3883 c7 -3 16 -2 19 1 4 3 -2 6 -13 5 -11 0 -14 -3 -6 -6z"/>
<path d="M3245 3839 c-4 -6 -5 -11 -4 -12 2 -1 15 -8 28 -15 14 -8 20 -9 16
-2 -5 7 1 9 19 4 35 -8 33 2 -4 21 -34 18 -46 19 -55 4z"/>
<path d="M3180 3800 c-9 -6 -10 -10 -3 -10 6 0 15 5 18 10 8 12 4 12 -15 0z"/>
<path d="M3230 3784 c0 -11 6 -13 19 -9 13 4 23 0 29 -11 6 -12 16 -15 28 -10
19 7 19 8 0 21 -10 8 -22 12 -27 10 -4 -3 -10 -1 -14 5 -10 16 -35 12 -35 -6z"/>
<path d="M3207 3732 c-16 -3 -14 -6 9 -18 20 -11 29 -12 35 -3 13 22 30 -2 24
-34 -5 -30 -4 -29 16 10 11 23 28 43 37 45 22 5 -97 4 -121 0z"/>
<path d="M3333 3693 c-13 -8 -23 -24 -23 -35 0 -10 -12 -41 -26 -69 -14 -28
-23 -54 -19 -57 7 -8 25 19 19 29 -2 4 5 5 16 2 25 -7 25 -8 0 -33 -21 -21
-27 -50 -10 -50 6 0 19 9 30 20 11 11 26 17 33 14 10 -4 13 5 10 36 -2 22 1
40 7 40 20 0 9 27 -15 40 -30 16 -28 32 6 41 13 4 18 7 10 8 -7 1 -11 7 -7 16
7 19 -3 18 -31 -2z m15 -93 c3 -8 0 -10 -8 -5 -7 4 -16 2 -21 -6 -7 -11 -9
-11 -9 2 0 30 29 38 38 9z"/>
<path d="M2726 3645 c-10 -8 -16 -20 -13 -28 4 -10 0 -13 -11 -10 -9 2 -26 -3
-37 -11 l-20 -15 20 -1 c18 -1 19 -1 2 -11 -9 -5 -23 -7 -30 -3 -6 4 -9 4 -5
-1 10 -11 -29 -38 -43 -29 -6 4 8 24 36 51 25 25 44 47 42 49 -5 6 -57 -20
-57 -28 0 -5 -6 -8 -14 -8 -7 0 -19 -6 -25 -14 -7 -8 -26 -18 -43 -21 -19 -5
-26 -10 -19 -15 8 -5 1 -13 -21 -24 -18 -10 -46 -24 -61 -33 -15 -8 -38 -16
-51 -17 -32 -3 -71 -32 -56 -41 7 -4 15 -3 19 3 3 6 20 14 36 18 28 7 29 6 16
-10 -22 -27 -82 -48 -117 -41 -17 3 -39 3 -48 -1 -15 -6 -15 -7 1 -20 10 -7
28 -10 41 -7 12 3 22 1 22 -5 0 -10 -37 -26 -54 -23 -5 1 -24 -5 -43 -14 -19
-9 -42 -14 -51 -11 -15 5 -15 5 0 -8 16 -12 14 -15 -22 -31 -22 -10 -40 -22
-40 -27 0 -4 -9 -8 -19 -8 -11 0 -26 -6 -33 -13 -7 -7 -21 -16 -32 -20 -14 -6
-16 -10 -7 -21 14 -17 4 -26 -31 -26 -32 0 -118 -37 -118 -51 0 -12 6 -11 33
3 41 21 53 25 86 33 30 6 32 5 23 -12 -16 -28 -44 -50 -77 -57 -48 -11 -85
-30 -85 -43 0 -12 -35 -27 -47 -20 -5 2 -17 -4 -28 -15 -17 -16 -17 -18 -2
-12 13 5 16 2 11 -11 -5 -12 -14 -15 -33 -10 -18 4 -22 3 -12 -4 11 -7 12 -13
4 -23 -6 -7 -11 -17 -11 -22 1 -14 -61 -74 -82 -81 -11 -4 -20 -10 -20 -14 0
-4 -19 -14 -42 -21 -24 -8 -48 -18 -55 -22 -7 -5 -14 -4 -18 2 -4 6 1 17 11
25 11 7 16 17 12 21 -5 4 -19 -6 -33 -22 -27 -31 -31 -44 -14 -44 5 0 7 -5 4
-10 -8 -13 47 11 58 25 5 6 7 5 5 -4 -4 -14 -73 -55 -111 -65 -16 -4 -19 -8
-11 -16 14 -14 88 5 105 27 6 7 19 13 28 13 22 0 71 23 71 33 0 4 4 7 10 7 15
0 50 33 50 47 0 7 -6 13 -12 13 -9 0 -10 3 -2 8 6 4 16 17 23 30 6 12 19 22
29 22 16 -1 16 -1 0 -11 -10 -5 -23 -20 -29 -32 -12 -21 -12 -21 14 -4 88 58
29 -31 -67 -100 -67 -48 -76 -58 -62 -68 14 -11 13 -14 -5 -34 -12 -12 -18
-25 -14 -29 3 -3 9 -2 13 3 4 6 15 16 25 24 17 13 18 12 12 -11 -9 -37 9 -43
39 -13 14 14 31 25 39 25 8 0 20 7 27 15 7 8 20 14 29 14 13 -1 13 -2 -1 -6
-14 -4 -16 -8 -8 -24 8 -14 7 -19 -3 -19 -8 0 -33 -14 -55 -30 -23 -17 -42
-26 -42 -21 0 37 -82 1 -96 -42 -3 -12 -13 -30 -21 -39 -9 -10 -12 -25 -8 -38
6 -18 12 -20 42 -14 27 5 34 4 28 -6 -6 -9 -3 -9 14 0 14 7 27 8 34 2 7 -5 29
-8 49 -7 30 1 36 -1 27 -11 -6 -8 -8 -25 -5 -38 3 -14 2 -28 -4 -31 -5 -3 -10
-11 -10 -16 0 -5 10 -1 22 11 29 27 44 26 17 -1 l-21 -21 27 -24 c21 -18 24
-24 12 -24 -10 0 -17 -5 -17 -11 0 -22 49 2 96 46 25 25 43 45 38 46 -5 1 2 4
15 8 31 8 40 31 12 31 -12 0 -24 7 -27 15 -4 10 -10 12 -18 6 -7 -6 -18 -4
-30 5 -18 12 -14 14 35 14 30 1 64 1 77 2 12 0 22 5 22 11 0 7 4 7 12 -1 9 -9
18 -6 39 14 17 16 29 22 33 15 4 -6 2 -11 -3 -11 -6 0 -11 -4 -11 -10 0 -5 7
-10 15 -10 10 0 15 10 15 30 0 24 4 30 21 30 18 0 19 2 5 15 -22 22 -50 18
-80 -12 -35 -34 -42 -25 -13 18 24 36 38 65 43 89 2 8 16 25 31 37 l28 23 -26
0 c-16 0 -32 -9 -41 -22 -9 -14 -19 -19 -28 -13 -10 6 -7 12 11 27 17 13 19
16 6 12 -17 -6 -18 -5 -6 14 7 11 21 23 30 25 9 3 22 14 29 26 10 20 9 21 -14
15 -26 -6 -38 10 -13 19 6 2 8 8 4 13 -4 5 -12 3 -16 -5 -7 -11 -12 -10 -30 1
-20 11 -24 11 -37 -6 -8 -11 -14 -16 -14 -11 0 5 -5 4 -12 -3 -17 -17 -28 -15
-28 4 0 9 9 18 20 21 11 3 20 11 20 18 0 9 -8 11 -22 7 -17 -4 -20 -2 -15 11
10 25 -29 43 -49 22 -17 -17 -44 -20 -44 -5 0 5 12 17 26 26 14 10 33 33 42
53 14 28 23 36 45 36 16 1 31 5 35 11 4 6 15 14 26 17 15 6 16 10 6 22 -16 19
-34 19 -26 0 7 -18 -29 -29 -79 -23 -30 3 -40 -2 -72 -35 -35 -36 -37 -39 -20
-51 17 -13 16 -14 -2 -19 -14 -3 -18 -1 -14 9 3 9 -2 14 -13 14 -16 0 -16 1 2
14 10 8 16 18 12 22 -4 4 -3 13 3 20 6 8 9 21 5 30 -5 12 -1 14 15 9 11 -4 30
0 42 8 12 8 40 20 61 27 22 7 49 21 60 31 11 11 23 19 28 19 18 0 23 -2 20
-11 -4 -14 78 30 84 45 3 8 13 12 23 9 10 -2 36 5 59 17 23 12 46 18 53 15 8
-5 9 -1 4 14 -5 15 -2 21 9 21 9 0 16 4 16 8 0 11 67 48 74 41 3 -3 -13 -16
-34 -29 -56 -35 -60 -53 -8 -34 54 19 55 18 19 -12 -17 -14 -37 -24 -43 -21
-7 2 -30 -7 -50 -20 -21 -13 -38 -19 -38 -14 0 5 -11 4 -25 -2 -14 -7 -25 -15
-25 -19 0 -11 24 -10 36 1 10 11 46 -15 56 -41 7 -16 -28 -58 -41 -48 -3 3 -7
-5 -9 -17 -2 -13 -7 -23 -12 -23 -5 0 -17 -14 -26 -32 -9 -17 -25 -40 -35 -51
-10 -12 -19 -24 -19 -28 0 -4 -8 -9 -17 -11 -17 -3 -17 -4 -1 -10 10 -4 24 -1
33 8 8 9 15 11 15 5 0 -5 -4 -13 -10 -16 -5 -3 -10 -13 -10 -21 0 -14 2 -13
16 0 21 21 54 39 61 32 8 -7 73 55 89 86 8 15 24 30 36 34 24 7 33 14 89 67
22 20 37 42 34 47 -4 6 1 7 12 3 10 -3 15 -2 10 2 -4 5 5 21 20 37 26 27 26
28 5 28 -18 0 -14 7 26 46 39 38 43 44 22 38 -18 -5 -11 5 26 35 29 22 59 41
67 41 9 0 19 5 23 11 4 8 -1 9 -17 4 -51 -16 -54 -17 -36 -5 9 6 17 19 17 28
0 15 -2 15 -10 2 -6 -9 -10 -10 -10 -3 0 6 10 20 23 30 14 11 22 27 21 43 -3
32 11 50 64 83 42 27 57 51 25 41 -15 -5 -15 -3 1 10 22 18 51 22 41 6 -4 -6
5 -5 19 2 14 6 26 15 26 20 0 13 -18 9 -23 -4 -2 -7 -8 -9 -13 -5 -5 5 8 23
29 41 32 27 36 34 22 40 -24 9 -38 7 -59 -9z m49 -5 c-3 -5 -10 -10 -16 -10
-5 0 -9 5 -9 10 0 6 7 10 16 10 8 0 12 -4 9 -10z m-175 -129 c0 -17 -18 -21
-24 -6 -3 9 0 15 9 15 8 0 15 -4 15 -9z m-50 -15 c0 -9 -30 -14 -35 -6 -4 6 3
10 14 10 12 0 21 -2 21 -4z m-203 -122 c-3 -3 -12 -4 -19 -1 -8 3 -5 6 6 6 11
1 17 -2 13 -5z m-19 -36 c-3 -7 -15 -14 -27 -16 -18 -3 -20 -6 -10 -18 18 -21
3 -29 -17 -9 -17 16 -16 18 7 36 28 21 53 25 47 7z m-91 -14 c-3 -3 -12 -4
-19 -1 -8 3 -5 6 6 6 11 1 17 -2 13 -5z m-82 -65 c-28 -20 -29 -21 -5 -15 14
3 31 6 38 6 6 0 12 7 12 15 0 9 9 15 21 15 18 0 19 -2 9 -15 -10 -12 -10 -15
1 -15 27 -1 -26 -25 -79 -36 -48 -10 -52 -9 -46 8 4 13 1 16 -10 12 -9 -3 -16
-12 -16 -20 0 -17 -39 -54 -57 -54 -23 0 -14 18 17 32 17 7 30 21 30 31 0 10
12 22 28 28 15 6 34 15 42 19 32 18 44 9 15 -11z m20 -69 c-3 -5 -11 -10 -16
-10 -6 0 -17 -7 -25 -15 -18 -18 -38 -20 -28 -3 5 8 0 9 -15 5 -32 -8 -16 6
22 20 40 15 70 16 62 3z m-115 -55 c0 -8 -9 -15 -19 -15 -11 0 -23 -4 -26 -10
-9 -14 -25 -12 -25 3 0 12 34 33 58 36 6 0 12 -6 12 -14z m335 -4 c-8 -13 -35
-15 -35 -2 0 5 8 11 18 13 21 5 26 2 17 -11z m-105 -21 c-14 -11 -20 -20 -15
-20 6 0 3 -5 -6 -10 -16 -9 -59 -3 -59 9 1 9 62 38 85 39 18 1 18 0 -5 -18z
m45 11 c3 -5 1 -12 -5 -16 -5 -3 -10 1 -10 9 0 18 6 21 15 7z m-75 -101 c0 -5
-5 -10 -11 -10 -6 0 -9 -6 -6 -14 3 -8 3 -16 -1 -18 -4 -2 -26 -27 -50 -57
-23 -30 -42 -46 -42 -37 0 9 -7 16 -15 16 -22 0 -20 3 36 57 28 26 56 53 62
60 15 15 27 16 27 3z m-420 -94 c0 -2 -7 -9 -15 -16 -12 -10 -15 -10 -15 4 0
9 7 16 15 16 8 0 15 -2 15 -4z m7 -133 c-3 -2 -14 0 -24 7 -16 10 -16 11 0 6
9 -3 17 0 18 7 0 8 2 8 6 -1 3 -7 3 -16 0 -19z m-78 -18 c-16 -16 -99 -53
-104 -46 -6 11 13 27 46 40 25 10 66 15 58 6z m43 -4 c-7 -4 -12 -14 -10 -21
2 -8 -6 -16 -17 -18 -11 -2 -23 -9 -27 -15 -4 -6 -10 -8 -15 -3 -4 4 0 12 11
18 10 5 25 19 34 29 9 10 21 19 27 19 5 0 4 -4 -3 -9z m43 -19 c-3 -3 -11 0
-18 7 -9 10 -8 11 6 5 10 -3 15 -9 12 -12z m85 -11 c-16 -31 -28 -33 -26 -6 1
17 7 25 19 25 14 0 16 -4 7 -19z m-50 -1 c0 -5 -4 -10 -10 -10 -5 0 -10 5 -10
10 0 6 5 10 10 10 6 0 10 -4 10 -10z m-46 -34 c-3 -9 -15 -16 -25 -16 -10 0
-19 -7 -19 -15 0 -7 -8 -19 -17 -24 -16 -9 -14 -10 9 -11 15 0 30 -5 34 -11 4
-8 9 -7 15 2 4 7 11 10 15 6 4 -4 -5 -21 -21 -37 -16 -16 -25 -33 -21 -37 4
-4 11 -1 16 7 6 8 10 11 10 5 0 -5 -5 -17 -10 -25 -9 -13 -11 -13 -21 0 -8 11
-12 12 -16 3 -2 -7 -9 -13 -15 -13 -5 0 0 13 11 29 12 16 21 32 21 35 0 11
-29 6 -43 -8 -8 -9 -19 -11 -28 -6 -11 7 -10 10 4 16 18 7 24 34 7 34 -20 0
-9 21 16 30 14 6 22 14 19 20 -3 5 9 16 27 23 38 16 41 16 32 -7z m113 0 c-3
-8 -16 -20 -27 -26 -22 -12 -22 -11 1 19 23 31 36 35 26 7z m-292 4 c3 -5 13
-6 21 -3 14 5 14 3 3 -14 -15 -25 -45 -19 -45 8 0 20 11 25 21 9z m-64 -23
c-10 -9 -11 -8 -5 6 3 10 9 15 12 12 3 -3 0 -11 -7 -18z m284 13 c3 -5 1 -10
-4 -10 -6 0 -11 5 -11 10 0 6 2 10 4 10 3 0 8 -4 11 -10z m-25 -21 c0 -6 -7
-17 -16 -26 -11 -12 -18 -13 -27 -4 -8 8 -6 15 9 26 23 17 34 19 34 4z m63
-94 c-3 -9 -8 -14 -10 -11 -3 3 -2 9 2 15 9 16 15 13 8 -4z m47 -21 c0 -8 -9
-14 -20 -14 -11 0 -20 -7 -20 -15 0 -8 -4 -15 -10 -15 -16 0 -12 15 13 42 23
26 37 27 37 2z m-360 -18 c0 -5 -3 -6 -6 -3 -4 3 -18 -3 -32 -13 -36 -29 -41
-15 -7 20 27 28 44 27 45 -4z m148 -21 c-2 -6 -9 -9 -15 -7 -8 2 -10 -3 -6
-15 6 -15 5 -16 -9 -3 -14 13 -14 16 1 27 18 14 34 13 29 -2z m89 -37 c-3 -8
-6 -5 -6 6 -1 11 2 17 5 13 3 -3 4 -12 1 -19z m33 -18 c0 -5 -5 -10 -11 -10
-5 0 -7 5 -4 10 3 6 8 10 11 10 2 0 4 -4 4 -10z m-130 -75 c-7 -9 -15 -13 -19
-10 -3 3 1 10 9 15 21 14 24 12 10 -5z m31 -26 c-13 -11 -26 -17 -29 -14 -7 6
29 34 43 34 6 0 -1 -9 -14 -20z m-37 -50 c-3 -5 -10 -7 -15 -3 -5 3 -7 10 -3
15 3 5 10 7 15 3 5 -3 7 -10 3 -15z"/>
<path d="M3350 3651 c0 -4 11 -6 25 -3 14 2 25 6 25 8 0 2 -11 4 -25 4 -14 0
-25 -4 -25 -9z"/>
<path d="M3395 3610 c3 -5 10 -10 16 -10 5 0 9 5 9 10 0 6 -7 10 -16 10 -8 0
-12 -4 -9 -10z"/>
<path d="M3247 3603 c-4 -3 -7 -11 -7 -17 0 -6 5 -5 12 2 6 6 9 14 7 17 -3 3
-9 2 -12 -2z"/>
<path d="M3470 3571 c-8 -6 -18 -7 -22 -5 -4 3 -8 0 -8 -5 0 -15 30 -13 60 4
22 13 23 14 5 14 -11 1 -27 -3 -35 -8z"/>
<path d="M3386 3545 c4 -8 8 -15 10 -15 2 0 4 7 4 15 0 8 -4 15 -10 15 -5 0
-7 -7 -4 -15z"/>
<path d="M3419 3548 c-1 -7 0 -19 1 -27 1 -8 -9 -23 -21 -32 -13 -10 -20 -21
-16 -26 5 -4 12 -1 17 7 5 8 12 11 16 8 4 -4 -1 -18 -9 -32 -17 -25 -20 -139
-4 -129 4 2 7 12 8 21 1 33 35 77 67 86 40 11 42 26 4 26 -20 0 -32 -7 -39
-22 -6 -15 -12 -18 -17 -10 -11 18 39 63 60 55 13 -5 15 -3 9 7 -6 10 -3 12
12 8 11 -3 20 0 20 6 0 8 -11 10 -29 8 -15 -2 -28 -8 -28 -12 0 -4 -9 -10 -20
-13 -11 -3 -20 -1 -20 3 0 5 9 12 20 15 11 3 20 10 20 15 0 5 8 11 18 13 14 4
14 5 -3 6 -11 0 -31 8 -43 17 -17 12 -22 12 -23 2z"/>
<path d="M3220 3530 c0 -19 3 -21 12 -12 9 9 9 15 0 24 -9 9 -12 7 -12 -12z"/>
<path d="M2398 3518 c9 -9 15 -9 24 0 9 9 7 12 -12 12 -19 0 -21 -3 -12 -12z"/>
<path d="M2704 3502 c-12 -9 -36 -25 -54 -35 -18 -10 -30 -21 -26 -25 4 -3 10
-2 14 4 4 6 26 21 49 33 23 11 44 25 48 31 10 15 -8 11 -31 -8z"/>
<path d="M2310 3490 c-18 -12 -2 -12 25 0 13 6 15 9 5 9 -8 0 -22 -4 -30 -9z"/>
<path d="M2378 3493 c7 -3 16 -2 19 1 4 3 -2 6 -13 5 -11 0 -14 -3 -6 -6z"/>
<path d="M3250 3479 c0 -11 5 -17 10 -14 6 3 10 13 10 21 0 8 -4 14 -10 14 -5
0 -10 -9 -10 -21z"/>
<path d="M3498 3393 c7 -3 16 -2 19 1 4 3 -2 6 -13 5 -11 0 -14 -3 -6 -6z"/>
<path d="M2180 3370 c0 -5 5 -10 10 -10 6 0 10 5 10 10 0 6 -4 10 -10 10 -5 0
-10 -4 -10 -10z"/>
<path d="M2665 3370 c-3 -5 -2 -10 4 -10 5 0 13 5 16 10 3 6 2 10 -4 10 -5 0
-13 -4 -16 -10z"/>
<path d="M3488 3363 c7 -3 16 -2 19 1 4 3 -2 6 -13 5 -11 0 -14 -3 -6 -6z"/>
<path d="M2628 3343 c7 -3 16 -2 19 1 4 3 -2 6 -13 5 -11 0 -14 -3 -6 -6z"/>
<path d="M3565 3340 c-3 -5 -1 -10 4 -10 6 0 11 5 11 10 0 6 -2 10 -4 10 -3 0
-8 -4 -11 -10z"/>
<path d="M3488 3332 c-21 -2 -38 -8 -38 -13 0 -9 68 -3 79 7 8 7 -4 9 -41 6z"/>
<path d="M2020 3320 c-13 -9 -13 -10 0 -10 8 0 22 5 30 10 13 9 13 10 0 10 -8
0 -22 -5 -30 -10z"/>
<path d="M2108 3303 c7 -3 16 -2 19 1 4 3 -2 6 -13 5 -11 0 -14 -3 -6 -6z"/>
<path d="M3467 3283 c-4 -3 -7 -13 -7 -21 0 -12 3 -12 15 -2 8 7 15 16 15 21
0 11 -14 12 -23 2z"/>
<path d="M3580 3275 c-11 -13 -10 -14 4 -9 9 3 16 10 16 15 0 13 -6 11 -20 -6z"/>
<path d="M3539 3228 c-7 -13 -16 -26 -21 -29 -6 -4 -8 -13 -6 -22 2 -9 13 1
30 29 15 24 23 44 18 44 -5 0 -15 -10 -21 -22z"/>
<path d="M1880 3209 c0 -5 5 -7 10 -4 6 3 10 8 10 11 0 2 -4 4 -10 4 -5 0 -10
-5 -10 -11z"/>
<path d="M2761 3161 c-7 -5 -11 -15 -9 -22 3 -10 8 -7 17 9 13 24 12 26 -8 13z"/>
<path d="M3508 3097 c-3 -19 -2 -25 4 -19 6 6 8 18 6 28 -3 14 -5 12 -10 -9z"/>
<path d="M1763 3080 c-15 -16 -34 -30 -40 -30 -7 0 -13 -4 -13 -9 0 -15 44 1
58 21 9 12 21 17 35 13 12 -2 16 -2 9 1 -10 5 -10 9 -1 20 24 29 -19 14 -48
-16z"/>
<path d="M2072 3095 c-11 -12 -10 -15 3 -15 8 0 15 7 15 15 0 18 -2 18 -18 0z"/>
<path d="M2725 3083 c-20 -29 -13 -42 10 -19 25 25 26 19 4 -21 l-21 -38 31
35 c18 19 30 41 29 49 -5 24 -36 20 -53 -6z"/>
<path d="M1698 3083 c-10 -2 -18 -9 -18 -14 0 -6 8 -5 20 1 11 6 20 13 20 15
0 3 -1 4 -2 4 -2 -1 -11 -3 -20 -6z"/>
<path d="M2112 3070 c-19 -8 -36 -36 -45 -76 -1 -4 8 -9 21 -10 26 -4 31 23 5
28 -12 2 -7 10 21 32 20 15 40 25 44 21 4 -4 2 -10 -4 -12 -6 -2 -20 -10 -30
-18 -16 -12 -16 -14 -3 -15 22 0 62 36 54 49 -7 13 -32 13 -63 1z"/>
<path d="M2401 3044 c-7 -8 -11 -17 -9 -20 3 -2 13 5 23 16 10 11 14 20 9 20
-5 -1 -15 -8 -23 -16z"/>
<path d="M2756 3023 c-20 -24 -30 -49 -32 -80 -2 -30 -10 -53 -25 -69 -12 -13
-19 -24 -15 -24 14 0 68 31 63 37 -3 2 1 21 10 40 8 20 15 50 15 67 0 17 5 37
11 44 5 7 8 14 6 17 -3 2 -18 -12 -33 -32z"/>
<path d="M1996 2989 c-21 -20 -35 -42 -32 -47 3 -6 -1 -13 -10 -16 -9 -4 -15
-9 -12 -12 3 -2 17 1 32 7 19 9 25 17 20 31 -4 12 -1 16 8 13 8 -3 20 5 27 19
23 42 8 44 -33 5z"/>
<path d="M1870 3010 c-35 -7 -35 -7 -5 -9 17 0 37 4 45 9 17 11 11 11 -40 0z"/>
<path d="M1517 2999 c7 -7 15 -10 18 -7 3 3 -2 9 -12 12 -14 6 -15 5 -6 -5z"/>
<path d="M2400 2995 c-7 -8 -24 -21 -38 -28 -29 -14 -45 -44 -18 -34 9 4 16 2
16 -3 0 -6 -9 -10 -20 -10 -11 0 -20 -4 -20 -10 0 -5 -7 -10 -15 -10 -13 0
-39 -12 -65 -28 -2 -2 2 -8 10 -13 11 -8 12 -12 3 -16 -7 -2 -13 -13 -13 -22
0 -25 44 -16 88 17 25 19 30 28 21 38 -7 9 -7 14 -1 14 15 0 35 -28 27 -40 -3
-5 -2 -10 4 -10 19 0 22 20 7 36 -19 19 -21 38 -3 31 9 -3 13 5 13 29 0 18 8
42 19 54 10 11 13 20 8 20 -6 0 -16 -7 -23 -15z m-110 -125 c0 -5 -5 -10 -11
-10 -5 0 -7 5 -4 10 3 6 8 10 11 10 2 0 4 -4 4 -10z"/>
<path d="M2031 2947 c-19 -19 -12 -28 10 -15 17 10 23 10 26 1 4 -10 8 -9 19
1 8 8 14 16 14 19 0 9 -58 5 -69 -6z"/>
<path d="M2273 2933 c9 -2 25 -2 35 0 9 3 1 5 -18 5 -19 0 -27 -2 -17 -5z"/>
<path d="M1580 2918 c0 -11 41 -10 59 1 10 6 2 9 -22 8 -21 0 -37 -5 -37 -9z"/>
<path d="M1460 2890 c0 -5 5 -10 10 -10 6 0 10 5 10 10 0 6 -4 10 -10 10 -5 0
-10 -4 -10 -10z"/>
<path d="M1905 2891 c-10 -17 12 -21 25 -6 10 12 10 15 -3 15 -9 0 -18 -4 -22
-9z"/>
<path d="M1974 2865 c-10 -14 -24 -25 -31 -25 -7 0 -13 -4 -13 -10 0 -16 13
-12 44 15 16 14 33 25 38 25 4 0 8 5 8 10 0 19 -27 10 -46 -15z"/>
<path d="M1540 2869 c0 -5 5 -7 10 -4 6 3 10 8 10 11 0 2 -4 4 -10 4 -5 0 -10
-5 -10 -11z"/>
<path d="M1545 2836 c-20 -8 -25 -15 -17 -20 7 -4 23 2 38 13 30 24 23 26 -21
7z"/>
<path d="M2737 2843 c-4 -3 -7 -11 -7 -17 0 -6 5 -5 12 2 6 6 9 14 7 17 -3 3
-9 2 -12 -2z"/>
<path d="M2198 2783 c7 -3 16 -2 19 1 4 3 -2 6 -13 5 -11 0 -14 -3 -6 -6z"/>
<path d="M2286 2775 c-11 -9 -14 -15 -7 -15 7 0 19 7 27 15 20 19 5 19 -20 0z"/>
<path d="M2125 2761 c-10 -17 9 -20 30 -5 18 14 18 14 -2 14 -12 0 -24 -4 -28
-9z"/>
<path d="M2317 2763 c-2 -5 0 -19 4 -33 7 -23 7 -22 6 8 -1 33 -3 37 -10 25z"/>
<path d="M2361 2727 c-13 -15 -19 -30 -15 -40 9 -26 18 -21 43 23 26 46 10 56
-28 17z"/>
<path d="M2150 2715 c0 -8 -6 -15 -14 -15 -8 0 -16 -7 -20 -15 -7 -20 8 -19
28 1 15 14 22 44 11 44 -3 0 -5 -7 -5 -15z"/>
<path d="M1499 2680 c-21 -17 -22 -21 -9 -30 21 -14 24 -13 45 10 11 12 13 20
6 20 -7 0 -9 5 -6 10 10 17 -12 11 -36 -10z"/>
<path d="M2080 2640 c0 -13 20 -13 40 0 12 8 9 10 -12 10 -16 0 -28 -4 -28
-10z"/>
<path d="M2361 2616 c-20 -11 -21 -14 -6 -19 23 -9 27 -9 20 3 -3 6 4 14 17
19 13 6 16 10 8 10 -8 0 -26 -6 -39 -13z"/>
<path d="M2237 2603 c-4 -3 -7 -11 -7 -17 0 -6 5 -5 12 2 6 6 9 14 7 17 -3 3
-9 2 -12 -2z"/>
<path d="M2023 2578 c-14 -15 -13 -17 12 -14 14 2 33 10 42 18 14 15 13 16
-12 15 -14 -1 -33 -10 -42 -19z"/>
<path d="M2340 2569 c0 -5 5 -7 10 -4 6 3 10 8 10 11 0 2 -4 4 -10 4 -5 0 -10
-5 -10 -11z"/>
<path d="M2378 2558 c-19 -19 -24 -38 -10 -38 10 0 38 48 31 53 -2 2 -12 -5
-21 -15z"/>
<path d="M2426 2449 c-11 -10 -16 -22 -13 -26 4 -3 7 -1 7 5 0 6 9 14 20 17
11 3 20 11 20 16 0 14 -13 10 -34 -12z"/>
<path d="M2032 2443 c-30 -15 -43 -33 -23 -33 5 0 11 -9 13 -20 2 -15 6 -17
18 -9 12 8 12 12 2 16 -10 4 -8 11 9 29 29 31 22 37 -19 17z"/>
<path d="M1918 2429 c-21 -12 -24 -29 -4 -29 7 0 16 9 19 20 3 11 4 20 4 20
-1 0 -10 -5 -19 -11z"/>
<path d="M2432 2403 c-31 -46 -22 -53 12 -9 14 19 23 37 18 40 -4 2 -18 -11
-30 -31z"/>
<path d="M2081 2379 c-13 -11 -17 -19 -10 -19 19 1 52 27 42 33 -4 3 -19 -3
-32 -14z"/>
<path d="M2462 2380 c-7 -11 -8 -20 -3 -20 9 0 24 30 18 36 -1 2 -8 -6 -15
-16z"/>
<path d="M2103 2358 c-20 -10 -32 -28 -18 -28 12 0 55 24 55 32 0 10 -9 9 -37
-4z"/>
<path d="M1600 2339 c0 -5 5 -7 10 -4 6 3 10 8 10 11 0 2 -4 4 -10 4 -5 0 -10
-5 -10 -11z"/>
<path d="M2032 2329 c-11 -18 -11 -24 4 -40 17 -19 17 -19 -6 -17 -12 2 -24
-3 -26 -10 -1 -7 0 -8 3 -2 2 5 9 10 14 10 14 0 11 -28 -3 -33 -7 -2 -10 -8
-6 -12 8 -9 38 18 38 34 0 6 6 11 13 11 7 0 4 7 -7 15 -17 13 -17 15 -3 21 20
7 23 44 4 44 -7 0 -18 -9 -25 -21z"/>
<path d="M1810 2292 c-20 -20 -55 -50 -79 -65 -30 -20 -40 -32 -33 -39 11 -11
25 -2 64 40 12 12 27 22 33 22 13 0 45 36 45 50 0 6 7 10 16 10 8 0 12 5 9 10
-10 16 -18 12 -55 -28z"/>
<path d="M1966 2321 c-4 -7 -5 -15 -2 -18 9 -9 19 4 14 18 -4 11 -6 11 -12 0z"/>
<path d="M2511 2274 c0 -11 3 -14 6 -6 3 7 2 16 -1 19 -3 4 -6 -2 -5 -13z"/>
<path d="M1933 2268 c-6 -7 -13 -21 -16 -30 -9 -27 18 -11 31 18 12 25 2 33
-15 12z"/>
<path d="M1680 2249 c0 -5 5 -7 10 -4 6 3 10 8 10 11 0 2 -4 4 -10 4 -5 0 -10
-5 -10 -11z"/>
<path d="M1790 2225 c-18 -21 -3 -32 16 -13 10 9 12 18 6 22 -5 3 -15 -1 -22
-9z"/>
<path d="M1965 2210 c-3 -5 -1 -10 4 -10 6 0 11 5 11 10 0 6 -2 10 -4 10 -3 0
-8 -4 -11 -10z"/>
<path d="M1823 2190 c-14 -21 -7 -53 11 -47 6 2 12 12 14 23 3 16 1 16 -7 4
-9 -13 -11 -13 -11 1 0 8 5 20 12 27 7 7 8 12 2 12 -5 0 -15 -9 -21 -20z"/>
<path d="M2002 2165 c-24 -25 -39 -45 -34 -45 5 0 12 -10 15 -22 4 -12 9 -19
13 -15 4 4 13 2 20 -4 10 -8 12 -4 8 23 -3 22 2 46 14 71 11 20 17 37 13 37
-3 0 -25 -20 -49 -45z"/>
<path d="M2072 2190 c-18 -30 -14 -36 8 -12 21 22 25 32 12 32 -4 0 -13 -9
-20 -20z"/>
<path d="M1902 2180 c-16 -26 -15 -35 1 -21 8 6 16 8 20 5 3 -3 10 4 17 15 9
18 8 21 -7 21 -10 0 -24 -9 -31 -20z"/>
<path d="M2500 2170 c0 -5 5 -10 11 -10 5 0 7 5 4 10 -3 6 -8 10 -11 10 -2 0
-4 -4 -4 -10z"/>
<path d="M2230 2161 c0 -6 4 -13 10 -16 6 -3 7 1 4 9 -7 18 -14 21 -14 7z"/>
<path d="M1720 2145 c-16 -19 -1 -19 24 0 16 12 17 15 4 15 -8 0 -21 -7 -28
-15z"/>
<path d="M2365 2150 c-3 -5 -2 -10 4 -10 5 0 13 5 16 10 3 6 2 10 -4 10 -5 0
-13 -4 -16 -10z"/>
<path d="M1770 2135 c-11 -13 -10 -14 5 -9 13 5 16 4 11 -4 -8 -14 3 -15 23
-3 15 10 7 31 -13 31 -8 0 -19 -7 -26 -15z"/>
<path d="M3085 1910 c-3 -5 -12 -7 -20 -3 -8 3 -15 0 -15 -6 0 -6 -6 -11 -14
-11 -9 0 -12 -7 -9 -19 4 -17 8 -18 26 -8 31 18 57 40 57 49 0 11 -18 10 -25
-2z"/>
<path d="M3197 1846 c-3 -8 -2 -18 3 -21 13 -8 20 9 11 24 -6 10 -10 9 -14 -3z"/>
<path d="M3056 1835 c-3 -8 -2 -15 3 -15 5 0 14 7 21 15 10 12 10 15 -3 15 -8
0 -17 -7 -21 -15z"/>
<path d="M1524 1440 l1 -36 -48 6 c-26 4 -49 4 -51 1 -9 -16 3 -112 14 -127 8
-9 14 -28 15 -42 0 -21 5 -27 21 -25 14 2 25 -6 32 -22 15 -32 5 -60 -14 -44
-7 6 -19 9 -26 6 -7 -2 -26 3 -41 12 -22 13 -29 13 -36 3 -4 -7 -12 -12 -17
-11 -5 1 -13 1 -19 0 -19 -2 50 -33 81 -36 16 -2 46 -10 65 -18 19 -7 66 -20
104 -26 39 -7 90 -18 115 -23 25 -6 70 -11 100 -12 46 -1 55 2 58 18 3 14 0
17 -12 13 -9 -4 -15 -3 -14 1 1 4 -1 17 -6 29 -4 12 -3 31 3 41 7 14 4 28 -15
60 -14 23 -30 40 -35 36 -12 -7 -56 40 -71 76 -6 15 -12 20 -15 13 -9 -24 -22
-13 -29 23 -6 32 -9 35 -35 29 -24 -6 -29 -3 -35 19 -6 24 -9 25 -44 20 -37
-6 -39 -5 -43 22 -3 23 -4 21 -3 -6z"/>
<path d="M3841 1324 c0 -11 3 -14 6 -6 3 7 2 16 -1 19 -3 4 -6 -2 -5 -13z"/>
<path d="M2415 1179 c2 -34 10 -68 18 -77 19 -22 30 -73 31 -139 1 -51 -6 -67
-18 -40 -2 6 -2 -15 1 -48 3 -33 7 -62 9 -64 2 -2 17 2 35 8 18 6 55 11 84 11
50 0 115 22 115 40 0 4 6 8 13 7 46 -1 50 2 44 40 -4 20 -13 41 -22 45 -8 5
-15 16 -15 24 0 8 4 13 9 10 5 -4 4 7 -2 24 -16 41 -28 18 -25 -47 1 -29 -1
-56 -5 -60 -4 -3 -7 1 -7 10 0 8 -5 17 -11 19 -8 3 -8 15 1 45 15 50 8 77 -20
70 -15 -4 -20 0 -20 14 0 10 -4 19 -8 19 -4 0 -6 -15 -4 -33 2 -18 -2 -53 -9
-78 -7 -24 -12 -63 -10 -86 3 -48 -9 -54 -46 -25 -24 19 -53 92 -53 135 0 15
-7 41 -15 58 -14 27 -14 33 -1 60 10 20 12 38 7 52 -9 24 -55 67 -70 67 -6 0
-8 -27 -6 -61z m42 -14 c8 -22 -6 -33 -17 -15 -13 20 -12 30 0 30 6 0 13 -7
17 -15z m200 -157 c-3 -8 -6 -5 -6 6 -1 11 2 17 5 13 3 -3 4 -12 1 -19z"/>
<path d="M2193 1107 c-4 -7 -7 -48 -5 -92 1 -44 -2 -93 -5 -110 l-7 -30 -7 30
c-5 22 -7 13 -6 -33 0 -41 4 -61 11 -58 58 25 88 28 157 18 40 -6 75 -9 77 -7
10 10 -19 39 -52 50 -29 10 -36 10 -36 0 0 -9 -12 -9 -55 3 -58 16 -74 36 -56
71 6 11 9 39 6 63 -2 26 2 55 9 70 13 24 12 27 -5 31 -10 3 -22 0 -26 -6z"/>
<path d="M4138 1101 c25 -22 28 -31 8 -31 -7 0 -19 -7 -26 -15 -7 -8 -18 -15
-24 -14 -27 3 -47 -2 -41 -11 3 -5 33 -10 66 -10 33 0 59 4 59 10 0 6 11 10
24 10 14 0 28 5 31 10 3 6 -2 10 -12 10 -10 0 -34 13 -53 30 -19 16 -39 29
-45 29 -5 0 0 -8 13 -18z"/>
<path d="M3870 1045 c0 -8 3 -15 8 -16 4 0 26 -3 50 -5 24 -3 42 -1 42 5 0 14
-10 19 -58 26 -34 5 -42 3 -42 -10z"/>
<path d="M2980 936 c0 -33 59 -121 72 -108 6 6 17 8 24 5 11 -4 14 7 14 46 0
56 -4 60 -33 34 -19 -17 -20 -17 -14 0 6 15 4 16 -16 6 -12 -6 -19 -8 -15 -4
9 9 -9 45 -22 45 -6 0 -10 -11 -10 -24z"/>
<path d="M2873 899 c1 -15 5 -25 9 -23 4 2 10 -1 14 -7 5 -8 9 -7 15 2 6 10
13 7 28 -12 27 -32 27 -6 0 37 -15 25 -27 33 -44 32 -19 -2 -23 -7 -22 -29z"/>
<path d="M3110 888 c0 -39 14 -66 24 -49 9 14 -2 69 -15 76 -5 4 -9 -9 -9 -27z"/>
<path d="M2960 896 c0 -14 39 -67 40 -53 0 11 -29 67 -35 67 -3 0 -5 -6 -5
-14z"/>
<path d="M4801 460 c0 -8 4 -22 9 -30 12 -18 12 -2 0 25 -6 13 -9 15 -9 5z"/>
<path d="M5210 425 c0 -15 57 -75 71 -75 5 0 9 7 9 15 0 8 -7 15 -16 15 -9 0
-18 8 -21 18 -2 10 -13 23 -24 30 -16 10 -19 10 -19 -3z"/>
<path d="M3446 345 c-9 -26 -7 -32 5 -12 6 10 9 21 6 23 -2 3 -7 -2 -11 -11z"/>
<path d="M5050 356 c0 -2 8 -10 18 -17 15 -13 16 -12 3 4 -13 16 -21 21 -21
13z"/>
<path d="M5098 340 c-3 -58 7 -79 39 -80 14 0 0 51 -24 85 -13 19 -13 19 -15
-5z"/>
<path d="M3680 315 c0 -21 11 -52 25 -75 27 -42 31 -60 15 -60 -5 0 -10 -4
-10 -10 0 -5 7 -10 15 -10 10 0 15 10 15 33 0 19 -3 37 -7 41 -10 9 -33 78
-33 99 0 9 -4 17 -10 17 -5 0 -10 -16 -10 -35z"/>
<path d="M4709 320 c-9 -5 -30 -11 -48 -12 -47 -4 -37 -15 25 -28 58 -12 88
-8 82 12 -7 21 -42 37 -59 28z"/>
<path d="M3221 244 c-18 -30 -40 -54 -47 -54 -8 0 -14 -4 -14 -10 0 -5 6 -10
14 -10 8 0 21 -3 30 -6 12 -4 16 0 16 15 0 12 9 40 21 62 31 62 18 64 -20 3z"/>
<path d="M4830 283 c0 -20 5 -23 42 -23 46 0 48 7 5 12 -16 3 -33 11 -38 19
-7 11 -9 9 -9 -8z"/>
<path d="M4985 280 c3 -5 14 -10 23 -10 15 0 15 2 2 10 -20 13 -33 13 -25 0z"/>
<path d="M3807 193 c-10 -9 -9 -23 1 -23 5 0 17 7 28 15 19 14 19 14 -2 15
-11 0 -24 -3 -27 -7z"/>
<path d="M3410 168 c0 -19 2 -20 10 -8 13 19 13 30 0 30 -5 0 -10 -10 -10 -22z"/>
<path d="M3545 130 c-3 -5 -1 -10 4 -10 6 0 11 5 11 10 0 6 -2 10 -4 10 -3 0
-8 -4 -11 -10z"/>
<path d="M3505 120 c4 -6 11 -8 16 -5 14 9 11 15 -7 15 -8 0 -12 -5 -9 -10z"/>
</g>
</svg>
